<svg id="Layer_1" data-name="Layer 1" xmlns="http://www.w3.org/2000/svg" width="630" height="630" viewBox="0 0 630 630">
  <defs>
    <style>
      .cls-1 {
        fill: #f7df1e;
      }
    </style>
  </defs>
  <title>es6-logo</title>
  <g id="logo">
    <rect id="background" class="cls-1" width="630" height="630"/>
  </g>
  <g>
    <path d="M106.91,366.44h135v36.9h-93v64.8h81.9v36h-81.9v29.4h97.2v36.9H106.91Z"/>
    <path d="M268.9,530.24l34.2-19.8c9,14.7,20.7,25.5,41.41,25.5,17.4,0,28.5-8.7,28.5-20.7,0-14.4-11.4-19.5-30.6-27.9l-10.5-4.5c-30.31-12.9-50.41-29.1-50.41-63.3,0-31.5,24-55.5,61.51-55.5,26.7,0,45.9,9.3,59.7,33.6l-32.7,21c-7.2-12.9-15-18-27-18-12.3,0-20.1,7.8-20.1,18,0,12.6,7.8,17.7,25.8,25.5l10.5,4.5c35.7,15.3,55.8,30.9,55.8,66,0,37.8-29.7,58.5-69.6,58.5C306.41,573.14,281.21,554.54,268.9,530.24Z"/>
    <path d="M436.9,510.74c0-22.5,9.3-40.5,25.2-62.4l43.8-60.6h45.6l-36.9,50.7c-6.6,9-18.9,18.3-18.9,18.3a47.9,47.9,0,0,1,22.5-5.1c32.1,0,57.3,22.2,57.3,58.2,0,39.3-30.9,63.3-69,63.3C468.7,573.14,436.9,547.94,436.9,510.74Zm97.2-.9c0-14.4-10.2-27.6-27.9-27.6s-27.9,13.2-27.9,27.6,10.2,27.6,27.9,27.6S534.1,524.24,534.1,509.84Z"/>
  </g>
</svg>
